<?xml version="1.0" encoding="UTF-8"?>
<svg id="Livello_2" data-name="Livello 2" xmlns="http://www.w3.org/2000/svg" viewBox="0 0 272.26 150.55">
  <defs>
    <style>
      .cls-1 {
        fill: #fff;
      }
    </style>
  </defs>
  <g id="Livello_1-2" data-name="Livello 1">
    <g>
      <path class="cls-1" d="M0,123.55v-.99l3.57,1.6,3.4-1.43,3.69-.97.27-3.28.61-2.23.9-1.71,1.46.53.31,4.86,2.56-3.59.76-2.16c.7-3.35,2.89-6.08,6.26-7.74l4.37-1.11,6.75,6.97.81,3.2,1.35,3.08,1.34,3.6,2.45,1.86-.18-11.18c-.99-.97-.71-3.24.31-3.79,1.52-.99,2.76-2.16,2.85-2.95.12-3.28.49-4.6,1.77-6.87l.26-8.77.94-1.06-.04-8.86,1-1.1.09-9.33,1.05-1.08-.19-8.41,1.07-1.04.03-11.69,2.28-.32,11.29.78,5.82.6,2.36,1.49-.51,2.8-.72,8.24-.58,4.35-.66,5.35-.41,6.73-.66,2.19-.69,8.22-.82,6.41,6.46-.06,1.25,1,1.2-1.23,1.06-2.25-3.92-2.93c.21-1.85.47-4.21.46-4.13l4.92-1.61-1.31-4.07,3.44-3.64-1.38-1.53,1.23-1.23,1.24-1.23,1.45,1.28.13,4.4,2.9,1.23,12.09.15,3.37,1.1,1.51-2.24,2.06-2.83,2.51-5.85c.7-.65,1.21-1.08,3.65-2.93.36-.52.6-3.6.61-5.81l-4.03-3.33c.05-1.07,1.54-4.82,2.45-6.23l3.77-1,2.95-.84,9.97-2.94,9.68-3.15,2.25-1.4.1-3.25s.65.32,1.62.8l-.59,1.53,12.07,6.1,2.38,1.65,12.59,6.3,2.3,1.63,2.97,1.5-5.26,5.58-.04,1.91.54,3.02.27,8.9,1.8,1.9,3.72.99,8.88,4.58,6.37.24-1.02-3.51,2.7-1.46,1.09,1.91-.46,1.56,2.82,3.14.32,4.89,4.32-.94,11.4-5.77,3.99,1.24,5.53,3.24,2.93,1.94,6.94,3.23,1.77,3.86-1.55,2.18-5.72-.95.53,5.62.65,6.55,5.84.25,2.41-2.65.59-2.06-2.44-1.13,2.02-2.2,3.56-1.44-.95-3.05-.39-4.45,2.58-.35-.44-6.1,2.45-.73,1.11,1.85.09,2.84,2.74,2.92c.53.97,1.6,2.55,2.4,3.28l4.38,3.89,1.92,3.73-2.16,3.69,5.96-2,2.06-1.3,4.16-2.62,2.81-1.38c2.12-1.49,4.04-2.62,7.17-2.89l-3.45,2.67-5.69,3.15-4.18,2.18-4.16,2.96-8.06-.09,1.92-2.6-1.81-2.82,1.98-1.07-1.61-3.01-2.5-.71-2.97-3.29-1.14-1.44-1.97.83-2.44.46,1.33,2.57,1.87-.53-2.22,4.28-3.57,1.77,3.14,3.2-3.78,3.39-2.68,2.34-.19,7.26-1.28,2.15-2.6.81-1.47,2.39-5.59.04-3.47,1.38-4.97,1.03-4.66.65-1.26.82-1.26-1.04-3.82,1.43-1.76.79-.5-2.16-.95-3.36-.21-10.75-.94-1.08-.02-10.63-3.91-1.41-2.36.3-11.96.27,1.74,2.11,3.85.62,4.9,4.78.84,7.41.79,2.15.2,13.68-4.15.83-1.37-3.99-.3-4.11,1.86-2.57c-1.87-1.33-4.93-2.37-6.98-2.13l4.19,2.47-3.24.65-.2,15.77-1.72-2.34-.41-13.25-.43-3.77-.18-3.67-.85-3.27-.57-11.22-.24-2.69-.19-1.12.83-2.02-2.18-.73c-2.7-.45-5.59-.65-8.74-.25l-4.86-.39,1.65,5.82.83,5.47.26,13.68.93,2.19-.12,12.07c-2.63-1.69-3.13-3.84-2.68-6.48l-1-3.41-.29-18.12-.98-2.15.13-7.85-2.35-1.25-15.29.05c-.59,1.34-.82,1.92-.55,1.95l.44,22.39,1.2,5.43-1.17,2.06-2.19-.28-.16-12.39-.98-2.22.15-15.75.64-1.01-2.55-1.24-7.58-.08-2.74-1.49-2.61,2.04c-.45.76-.78,1.54-.31,1.54l.2,25.74-3.05-.04v-28.73s-2.75,1.12-2.75,1.12l1.19-4.73c-.65-.35,0,0,1.06.58l5.16.14,1.43.99,1.72-1.46,2.64.23,13.59.24,2.04.87,13.51.24c.82.37,1.39.37,2.81,0l1.94.72,12.28.1,1.57,2.84,10.27.36c.83.19,1.76.22,2.5.08l3.4.06,5.22.6-.23-5.12-4.14,1.37-2.56-1.83-.81-1.94,1.32-1.52-2.89-2.83-4.28,2.26.89,3.17-3.13.77-4.21-1.04-1.97-1.52,1.5-1.54,3.79-.56-3.83-1.55-7.7-3.62-5.71-3.79.26-10.54h-5.03s-.1,9.24-.1,9.24l-6.39-2.91-3.34-1.58-4.54-.66c-2.29,1.28-3.43,1.77-4.98,2.3l-3.99,1.22-5.08.73c-2.38,1.41-4.75,2.42-6.98,3.12l-2.56.65-3.36.9-1.55-2.54.21-7.1,1.19-4.43-1.24-3.62-3.23-.52-2.07.66,1.14,2.13-1.09,2.45-4.12,3.7-3.07,5.98c-1.1,2.34-2.84,3.9-5.49,4.79l2.96.65-3.58,3.73h-9.98s-4.22-3.01-4.22-3.01l3.7-2.87-5.93-.12-1.46-3.06-3.02,3.01,1.47,1.56-.49,2.34-3.31,2.35-2.94,1.56,3.32,3.08c2.53-.89,5.33-1.1,7.7-.21l8.5.46,1.26,2.24-1.57,1.65-13.73-.09-2.26,1.99-12.02.2-5.73,2.56-4.05.93-4.64.45-2.36-1.23-1.52,1.41-.17,6.3-1.27,1.91-2.45,1.5.73,2.35-.1,7.09-1.05,4.15-1.91,1.43-1.83-2.15-2.88-3.79-.81-4.11-1.12-3.31-4.85-4.84-1.81-.74-1.44.95-3.52,1.88-2.18,3.46-1.84,5.51-4.16,4.13c-.96-2.18-1.26-2.73-.72-.61l-4.21,2.52-4.38.88c-.83,2.94-1.65,3-1.48.13l-2.44-2.07ZM138.26,58.39l10.96.97,9.76.86,5.59,1.08,4.47-1.89-.18-1.79-12.71-6.38-2.32-1.66-11.4-5.64-2.44-1.12-2.46,1.1-2.01.95-9.97,3.09-6.97,1.99-7.81,2.06-1.45,4.22,2.8,2.62,1.79-2.95,2.18.85,9.07.39,3.3.65,9.79.6ZM59.27,97.4l4.93-2.46,1.29-3.64.67-8.17.6-5.38.67-4.34.34-6.74.74-2.17.54-9.19.88-4.39-6.38.18-2.14-1.06-9.52-.1-.25,6.58-.94,2.18.13,7.84-1.15,1.06.29,7.43-1.06,2.14-.09,8.79-.92,1.1-.19,9.27-1.01,1.93,2.18.39,2.39.64,3.58-.88,4.42-.99ZM142.14,71.55l1.33-1.21-1.26-1.39-8.96-.24,3.03-2.64c.24.18-1.17-.88-1.54-1.15l-8.99-.21-6.17-1-.02,14.12,3.5-.41,6.26-2.52c.6-2.71.85-3.65,1.44-5.41l1.06,3.43,6.28-.35,4.05-.99ZM158.74,72.11l-.51-3.97-2.18-1.34-8.29.38,3.07,3,8.18,3.78-.27-1.86ZM226.84,98.1c-.37.61.85-1.38,1.31-2.14l-2.76-1.1-3.97-2.46-5.79-3.04c-2.85-2.67-6.59-3.84-9.47-.92l4.7.5,7.62,3.81,4.52,3.35-8,1.17,11.82.82ZM90.58,93.62l-3.35-1.96-9.65.42,5.28.71,2.21.75,5.5.08ZM206.33,108.23v-8.18s.62-1.7.62-1.7l-8.55-.67-.21,10.11,1.88,2.88,7.33-.1-1.08-2.34ZM221.37,107.78l-.2-7.32-1.21-1.79-5.89.11,2.11,2.61.31,4.9.6,2.76,1.57,2.31,3.68-.06-.97-3.52ZM214.39,110.58l-.4-6.57-.9-2.65-1.41-1.5-2.94.27v4.76s.76,5.77.76,5.77l4.9-.07ZM213.78,126.91l3.15-1.08c1.04-.99,1.51-2.57.13-2.22l-8.8.1c-.33,3.49-1.38,3.83-1.91,1.37l-.27-5.87,4.83-4.6,2.48-.88-14.07-.05.39,7.23,1.2,8.21,1.8-3.79c-.02-2.63.86-2.41,1.42-.15l.44,3.31,4.57-1.05,4.63-.54ZM224.8,119.61l1.79,3.15,2.18-2.54-.82-5.54-8.19-.16-2.34-1.14-3.19.51,4.22,2.07,1.37,4.38-.28,2.83,2.18,2.46,1.58-1.88-.23-6.65,1.81-.57-.07,3.08Z"/>
      <path class="cls-1" d="M73.36,33.17l.07,6.88-2.33,4.28-.57-7.51-2.27,2.08-2.85-1.95-9.38.32-2.18-.02v6.17s-1.62.6-1.62.6l-.4-1.99-.22-4.65-1.34-3.75,2.18-2.25,1.06-4.74.51-6.77-1.18-1.11v-7.35s1.54-1.39,1.54-1.39l1.93.86,2.37-5.05,3.45-2.32,3.57-2.24,1.61-1.29.38,2.63,2.69,1.84,3.08,5.69,2.13,3.42.12,9.04-1.66,2.67,1.88,2.38c-.56,2.94-.71,2.97-1.54.27l-.68,2.58c-.2,1.29-2.07,2.1-2.14.24l.81-5.1.55-7.63-.62-1.99-1.4.36.93,2.17-2.05.69-.11,6.42-1.46,1.68.46,5.5c-2.9-.63-2.11-.45-.59-.09l5.27.4ZM56.59,30.78l.48-7.33,1.19-4.59-1.74-2.57-.93,4.88-.84,2.32.9,1.19-1.23,5.9c.86,1.31,2.63,2.03,2.17.2Z"/>
      <path class="cls-1" d="M171.8,148.23l-6.13.34c-.44-1.28-.72-2.08-.67-1.93-2.06,1.79-3.98,2.47-5.85.89l-7.35.18c-1.61.39-3.06.54-4.48.5l3.84-3.6c.21.17-.7-.58-1.81-1.51l.48-5.37c.56-1.13.52-3.3-.14-4.56l-.22-8.85-.95-2.19.14-7.06c1.03-1.64,1.61-2.87,2.01-4.17l.52-2.87,2.72-.7,2.12-.81.42,2.34.93,1.24-.98,1.3.02,13.93c.61.53,1.22,1.07.4.35l.23,3.08.51,6.38-2.39.91,1.75,1.56s.31.96.61,1.88l1.03,2.45-1.08,2.28,6.76.66,2.44-.15,7.87-.46c.55.49,1.89,1.67,1.58,1.39l-4.33,2.54Z"/>
      <path class="cls-1" d="M133.24,145.17c.88.93,1.71,1.8.13.13,2.72-.56,3.84-.79,3.81-.79l1.15,2.43-.8,1.61-1.55,1.99-1.56-1.85-2.07.81-14.23-.14-2.74-1.05c-1.75-.55-2.95-1.66-.38-1.5l3.4-2.27,1.98-1.91-.42-2.68.75-1.99-1.14-2.36.03-9.74,1.56-1.41,2.41,1.22v5.2s5.96.79,5.96.79v-16.89s2.51-1.35,2.51-1.35l2.5,1.42-.03,25.35-1.64,1.46,1.75,2.26-5.76.67c-2.03-.23-1.39-1.62.33-2.55,2.53.22,2.84.05.32-.67l2.2-3.17-2.35-1.97-.16-2.76c-.57.18-1.65.53-1.56.51l-.4,5.66c-1.98-1.47-2.02-3.81-.94-5.95l-1.82.27.13,6.26,2.06.72-.75,1.92-1.11,1.96.17,1.74,1.93-.86,6.34-.51Z"/>
      <polygon class="cls-1" points="90.11 139.58 92.64 138.49 92.62 144.25 90.22 143.88 84.35 144.44 85.45 138.29 84.57 135.97 85.63 133.63 85.83 126.27 84.69 124.13 84.93 115.03 86.02 109.89 88.23 109.95 90.06 113.08 96.13 113.59 98.35 115.04 98.33 118.15 95.17 120.91 92.34 120.85 90.51 122.17 91.66 123.92 91.55 136.1 90.11 139.58"/>
      <path class="cls-1" d="M137.32,83.72l-2.63-1.04-9.73.15-1.49-1.81,5.64-1.94,4.87.13,4.04-1.02,4.59-1.48c2.58-.73,5.12-.72,7.71-.19l4.4,2.43,2.81.74,9.11,4.85-17.02.34-2-1.12-10.3-.06Z"/>
      <path class="cls-1" d="M174.08,125.17l.41,12.39-3.44-.44-.6-3.66-.89-4.37-.28-18.17,3.87-4.51-.22,5.78.45.96-.47,1.73,1.86,7.57c-1.02,1.63-1.43,2.62-.7,2.72Z"/>
      <path class="cls-1" d="M143.03,144.8l-2.77.85-2.2-2.8,1.6-2.82-.75-2,.96-5.19c-.59-.33.58.33,1.56.88l.17,8.36,1.43,2.71Z"/>
      <polygon class="cls-1" points="63.63 44.66 61.19 47.33 55.15 43.29 57.15 39.88 59.03 43.95 63.63 44.66"/>
      <polygon class="cls-1" points="106.38 121.39 103.65 120.61 103.54 114.14 105.09 113.55 106.35 115.35 106.38 121.39"/>
      <polygon class="cls-1" points="38.13 139.93 37.65 135.85 36.71 134.05 38.15 132.82 40.38 135.17 40.99 138 38.13 139.93"/>
      <path class="cls-1" d="M138.91,56.01l-1.92-.67c-1.94.59-4.07.59-5.8-.18l-11.15-.33-3.29-2.41,5.98-2.31s.34.48,1.17,1.61l6.99-2.61,6.24-.16c1.41-1.5,4.05-1.09,5.58.21,1.74.82,3.57,1.57,5.23,2.14l5.82,2.61,4.35,3.13-3.66,1.32-4.4-1.28-6.68-.08-2.51-2.92-1.93,1.92Z"/>
    </g>
  </g>
</svg>