<?xml version="1.0" encoding="UTF-8"?>
<svg id="Livello_2" data-name="Livello 2" xmlns="http://www.w3.org/2000/svg" viewBox="0 0 147.82 100.35">
  <defs>
    <style>
      .cls-1 {
        fill: #fff;
      }
    </style>
  </defs>
  <g id="Livello_1-2" data-name="Livello 1">
    <g>
      <path class="cls-1" d="M105.81,17.83l3.81,2.95,3.26-1.15,2.97-1c2.65-.89,4.99-1.33,6.93-1.53.5-.05.32,1.51.28,2.02l-.46,6.69,4.58-.17-1.98-4.26-.48-1.55c.77.68,2.44,2.36,3.29,3.27,3.27,3.53,8.58-4.52,12.89.39,4.71,5.37,7.71-.34,6.44,3.92l-2.63-.43,3.09,2.4c-.91.34-2.22.8-2.1.82s.64.73,1.66,1.99c.4-.2-.52.26-1.67.84l-.12,8.93,2.15,2.45-2.15.77,2.06,1.22c-3.14.77-2.4,1.71-.01,2.85l-23.33,7.62c-.49-.29.1-.78,1.16-1.42.55-.63,1.56-1.72,1.27-2.17-.2-.31-.74-1.09-.72-1.06.35-1.22.67-2.34.57-2.02l-3.74.07c-.19-.39.55,1.13,1.2,2.47,2.36.76,2.57,1.66-.08,1.57-.7.66-1.52,1.41-1.29,1.7l1.19,1.47-2.57.06-2.17-2.69-2.16.69,2.44,2.9c1.99-.39,1.44-.28.43-.09l-9.83,3.56-17.86,6.11c-.33-2.22-.49-4.15-1.14-4.94s-2.56-1.39-3.93-1.77l-.19,3.31c-.78.54-1.82,1.6-2.14,2.41-.25.65.46,2.72,1.14,2.56-.06,1.1-10.58,3.87-11.53,4.02-.6.09-.29-1.9-.13-3.58l-2.27-2.32c-.97.09-2.75,1.06-1.68,1.22l3.22,2.59c-.9.69-1.93,1.57-2.07,1.16l-.67-1.88-4.3-.63c1.06-1.75,1.5-2.73,1.97-3.07l2.45-1.81,3.1,2.51-.55-4.1.27-2.4-.11-4.78-.98,4.11-2.67-1.95c.06,1.84.6,3.71,1.58,5.92l-2.55-.96-2.99-1.13-.03,13.18,4.18-1.37c.97-.32,2.92-.5,3.88-.47-2.12,1.7-2.48,2.06-.57.81l2.72,2.87-6.26-.12c.92-1.97.81-2.24-.38-1.48l-26.5,8.78-2.48.82c-.55.18-1.6-.62-2.4-.98l-2.12-.96-3.41-1.44-5.02-2.13-3.51-1.45-3.42-1.41-5.01-2.13-3.5-1.48-3.48-1.47-3.51-1.47-3.75-1.56c-1.6-1.48-1.42-1.75,1.47-.21l2.06-2.21-2.1-2.21c-2.25-.27-2.88-.34-2.36-.28,1.35-1.26,1.75-1.76,2.05-1.54l1.65,1.22-.21-5.17c-1.67.7-2.24.94-.87.36-.15-1.53-.25-2.58-.18-1.79l-2.93.03,3.88-2.3,2.31.74c.43.34,1.45-1.25,2.29-3.73.49-1.08,7.46.59,8.09,1.7l1.17,2.06.85-2.08c.17-.4,1.57.32,2.03.71.41.34,1.17,1.27,1.95,2.22.28.35,1.3.55,1.99.51l2.06,1.47,1.48-2.46c.3-.5,2.42-.5,2.99-.44l4,2.93,1.83,1.35.21-4.18,2.92-.16-.02-25.82-5.6.39-2.42.46c-.82.16-3.66.76-3.7,1.58l-.51,12.06c-.04.88-.97,3.21-1.5,4.55l-.31-17.13-4.53.59-5.2.68-.36,4.01c-.9-1-1.88-2.47-2.66-2.95l-3.02-1.86c.77-.2,3.65-.75,3.69-1.59l.28-5.83-5.02.71c-.88.12-3.69,1.05-3.74,1.88l-.77,13.48-.76-13.68c.3-.04-.93.13-2.36.32.24.58-.81-.97-.4-1.11l2.08-.7c.92-.31,6.79-2.68,5.93-3.78,1.51-.08,1.56-.36,1.45,2.4,1.94-.88,4.34-2.07,6.44-3.17l2.85-1.5c1.09-.52,3.11-1.67,1.14.88h3.3s5.15-3.09,5.15-3.09l5.7-3.41,1.97-2.2-13.29,4.4c-1.01.33-2.89.42-3.93.17l18.84-6.69,8.36-2.97c.9-.32,2.85-.61,3.85-.73l-3.05,2.16-5.53,3.28-3.06,1.81-4.35,2.58-2.06,1.87,4.1-1.03,3-.81c.6-.16,2.26-.89,2.76-1.21l4.06-2.61,3.21-2.06,4.22-2.68,3.63-2.3c.67-.57,1.22-1.04.43-.36l-4.61-.09,11.92-4.42,6.28,6.94,8.57,9.16,10.35-3.23,8.46-2.64s.38.15,2.34.93l-.71,2.1-.18,9.32,3.66.9c-.29.2.62-.42,1.34-.91l.02-4.73ZM55.05,16.36l4.32,1.2,5.59.31V2.88s-3.11,2.06-3.11,2.06c-4.98,3.31-7.05,3.32-6.98,5.69l.18,5.72ZM74.07,18.69c.84-1.21,1.26-5.63.02-6.91l-7-7.24-.21,14.31,7.19-.16ZM39.05,11.36c0-.27-.22-.5-.5-.5s-.5.22-.5.5.22.5.5.5.5-.22.5-.5ZM49.13,16.18l3.91.71-.25-6.08-4.95,2.9-2.93,1.71,4.22.76ZM86.88,19.82c-.19,1.07,2.93,2.38,4.18,2.04,1-.27.76-3.89.45-3.93-1.8-1.03-1.58-.89-1.28-1.04l2.39-1.19.56,6.29.75-2.44c.25-.83,2.12-1.7,2.92-1.71l-.22,2.61c-.27.67-.75,1.94-.85,1.96-.1.02,1.19.24,3,.52l-.09-10.66-5.41,4.01.29-2.42c2.22-.9.66-.71-1.02-.39-.87.3-2.84.96-3.59,1.4l-3.87,2.28c-1.36-1.58-1.17-1.36-.04-.05l-2.34,2.58,4.19.13ZM80.22,18.9l-3.22-3.34.2,4.82,3.02-1.48ZM52.99,26.79v-7.73s-6.58-.7-6.58-.7l-4.31-.54c-.98-.88-1.15-1.02-.04-.03v9.01c-1.06,1-1.02.96.03-.04l10.9.03ZM82.89,17.33c0-.27-.22-.5-.5-.5s-.5.22-.5.5.22.5.5.5.5-.22.5-.5ZM30.09,26.79c.05-.67.04-1.73.5-2.03l2.03-1.33,3.07-2.13c.68-.09,1.8-.54,2.72-1.02l1.69-.9c.39-.21-.54-1.7-.38-1.19l-3.67.91-4.03,1-3.88.96v7.88s5.28-.69,5.28-.69l4.34-.73,2.27-.96-.11-5.65c-1.02,1.12-1.87,2.11-2.35,2.35l-3.5,1.77-3.97,1.79ZM54.99,18.33c0-.27-.22-.5-.5-.5s-.5.22-.5.5.22.5.5.5.5-.22.5-.5ZM117.76,20.82l.27,3.86c.06.8,2.78,1.16,3.66,1.13l.04-7.09-1.57,1.1c-.31.22-1.14-.39-1.79-.79l-5.01,2.47-1.6.79c-.39.19.56,1.71.37,1.19l2.41-.55-.27,1.72c3.88-.11,3.27-1.22.45-2.07l3.05-1.77ZM63.96,20.82l-.14-1h-8.81s-.02,6.72-.02,6.72l1.79,1.26,6.47.05,1.83-1.76-1.12-5.27ZM75.08,36.81c.63,1.31,1.61,3.13,1.62,3.57l.48,14.94c.06,1.99,3.25,4.24,5.62,5.22l.12-37.57-3.39-.77-3.38-.49-.74,8.23-.75-7.99c-.29-.12-1.68-.79-2.12-.83l-5.29-.44-.69,4.2-.61,3.68,4.1.63-2.96.87c-1.73,7.35-1.25,17.02-.96,25.25.05,1.46,4.93,3.08,5.06,2.15l2.59-2.42.16-5.31c0-.18.61-1.04.86-1.39l.28-11.54ZM109.88,23.41l-2.88-2.77c-.07,1.34-.24,3.3.4,3.19l2.48-.42ZM22.1,30.15c.89-.11,3.67-.81,3.76-1.64.2-1.75.21-4.3.31-6.82l-6.05.73c-.86.1-3.5.91-3.7,1.73-.35,1.42-.26,4.21-.36,6.73l6.04-.74ZM98.75,52.29l.12-21.45-4.96-.12c-.35,0-1.31,1.05-1.58.9s-.71-.46-2.03-1.39c-.8.34.18-.08,1.56-.68l-.02-5.54-3.39-.89-3.56-.31v29.88s2.65-1.38,2.65-1.38c.64-.33,1.59-1.06,1.8-.68l.89,1.64c.17.31,1.18,1.36,1.31,1.48l.87-10.25.57,10.41,2.14,2.54,3.63-4.18ZM99.26,28.2c-.53-2.09-.59-3.67-1.39-3.9l-3.49-1-1.95,2.08c.53,2.08.58,3.67,1.4,3.9l3.48,1,1.95-2.07ZM134.05,26.68l.29-2.78-3.81,2.49,2.59-.53c.33-.07.85.71.93.83ZM106.01,29.7c-.31-2.41-.29-4.36-1.12-4.47l-4.01-.55-.04,5.09,5.18-.08ZM129.04,25.79c0-.45-.36-.81-.81-.81s-.81.36-.81.81.36.81.81.81.81-.36.81-.81ZM137.31,24.94c.27-.22-.79.64-1.64,1.34.96,2.41,1.99,2.55,1.64-1.34ZM140.02,25.54c-.09-1.09-.06-.68.04.44.23,2.3.22,2.15-.04-.44ZM109.9,26.18l-3.16-.47.28,3.26,2.88-2.79ZM118.76,52.66l1.95,1.21c1.02.67,1.29.84-.2-.13l1.35-3.75-2.14.49,2.06-2.61-.04-21.02-3.75-.05-.74,5.13-.67-5.24-3.76-1.16.09,3.89c.45.67,1.33,1.57.95,1.79l-2.04,1.17-.03,20.16,3.36-1.93c1.05-.6,1.57-2.73,2.21-4.92l.48,2.99c.07.42,1,1.28.87,1.62l.04,2.36ZM127.58,30.48l-2.15-3.33-2.77-.14.17,3.84,4.76-.38ZM54,28.28c0-.27-.22-.5-.5-.5s-.5.22-.5.5.22.5.5.5.5-.22.5-.5ZM108.81,29.64c2.14-.68,2.54-1.21,1.56-1.6l-1.56,1.6ZM130.17,31.88l.23-3.95-3.68.6,3.45,3.35ZM51.37,58.5l1.61,1.07.02-29.59-3.41-1.01-7.55-.21v24.78c1.12.1,2.62.04,2.96.54l1.44,2.13c.68-.08,3.31-.41,3.29-.41l1.63,2.68ZM134.46,29.44c-.24-.54-2.83-.4-2.97.09.44,1.52,3.71,1.68,2.97-.09ZM134.97,29.29c1.24,1.16,2.08,2.02,2.2,1.6l.51-1.75c.12-.42-.85-.16-2.71.15ZM141,29.77c0-.45-.36-.81-.81-.81s-.81.36-.81.81.36.81.81.81.81-.36.81-.81ZM64.51,55.52c.08.24-.1-.31-.46-1.37l-.13-12.12c0-.18.79-1.37.99-1.65l.08-10.65-10,.19.07,28.93c0,.74,2.48,1.84,2.2,1.1l2.9,1.79c-.04.14.13-.51.69-2.63.27-.88,1.1-1.64,3.67-3.58ZM144.48,30.27c0-.45-.36-.81-.81-.81s-.81.36-.81.81.36.81.81.81.81-.36.81-.81ZM108.25,51.57l2.49,3.1v-22.84s-3.67-1.11-3.67-1.11l-.77,9.17-.71-9.12-4.79.05.1,22.79,2.51-2.52,2.09,1.58.88-3.23.87,5.31,1.01-3.18ZM129.35,48.24l.86-7.1.72-5.79c.16-1.3-1.47-3.6-2.7-3.91l-1.06,5.45-.64-5.12-3.84.05.17,17.11c1.26-.58,2.41-1.12,2.41-1.12-.03.08,1.01.8,1.12.88l.93-4.2.59,5.99,1.78,1.22-.9-1.6c-.18-.32.5-1.48.55-1.88ZM137.62,32.7c-.97.6-2.1,1.29-1.88,1.16l-.53,7.04-.84-9.18c.23-.37-2.59,1-2.59,1.6l-.07,14.28,3-1.79c2.41,0,2.36.19-.04,1.37.32.5,3.04.37,3.04-.56l-.08-13.92ZM143.62,32.89l-1.59,1.89-2.29-3.19.04,13.39c1.39-.63,2.46-1.06,2.42-1.1s.91.55,1.48.88l-.06-11.87ZM143.76,49.74c-.36-2.1-.42-3.09-.85-3.19l-2.24-.51c-.29-.07-1.07.9-.91,1.16s.81,1.26.55.86l-.42,2.55c.92-1.12,1.54-2.25,2.05-1.95l1.82,1.07ZM133.52,49.17c0-.45-.36-.81-.81-.81s-.81.36-.81.81.36.81.81.81.81-.36.81-.81ZM135.51,51.88l2.28-.59c.42-.11-.52-1.62-.84-1.92-.36-.34-1.44-1.05-1.69-.7s-.78,1.15-1.1,1.46l-2.62,2.54c1.85-.33,2.99-.54,3.97-.79ZM112.51,59.79l3.55-1.13c.98-.31.28-3-.04-3.95l.52-2.99c-3.51,1.2-4.77,3.75-4.47,5.52l.43,2.55ZM31.08,60.62c.15-.29.52-.98.54-1.09.01-.09,1.35.48,2.37.89,1.15,1.93.8.57.4-.68l-2.44-1.1c-.4-.18-1.02-1.34-1.29-1.8-.37-.64-2.58.69-2.29,1.38l.8,1.95c.17.4-1.68.21-2.1.35l-3.46,1.14c-.95.31-.03,2.78.49,3.62l1.12,1.82c.23.37-1.55.49-1.86.2l-2.06-1.92c-1.12.54-2.06,1.17-2.26.78-.23-.44-.3-1.11,0-1.4l3.06-3.05,2.82-2.81-3.38-.95-1.76,2.43c.16,1.63,0,1.32-.64-.78l1.84-3.51c.16,0-1.12-.87-1.33-.49l-1.09,1.94c-.48.85-2.4-1.65-2.85-2.7l-2.28,1.66c-2.12.1-1.31-1.21.7-2.37l-2.69-1.38-.71,2.06c-1.36-.96-1.97-1.39-.62-.44l-2.41,2.82c-.17.31-2.28,2.17-2.29,2.92l-.16,9.3,4.54,1.61c.98.35,4.29,1,4.28-.08l-.04-3.34c-2.68-.57-2.67-1.51-.08-1.92l.24-2.78-2.54-.99-1.79,1.8c-.68.68-.4,2.48,0,3.54l-3.26,1.68v-1.89c.77-1.89,2.74-5.24,4.12-6.54.32-.3,2.57.62,3.1.87-.09.34.22-.9.34-1.32s-1.16-.31-2.11-.33l-1.37-.9-1.49.55c.13-1.93.05-3,.45-2.82l1.82.82,2.3,1.03c.47-.28,1.99-1.3,2.04-.87s.19,1.41.22,2.01l.27,5.71c.07,1.6,4,.77,4.06,4.1l-4.11-2.03-.1,6.01,3,1.2,3.65,1.46c.61.24,2.12.46,3.38.66l-.33-7.57-3.61,3.15c-.11.18-.1-2.07.37-2.74s2.06-.87,3.4-1.14l.2-4.45c3.19.38,4.99.52,8.69.48l-3.8-3.75ZM87.85,58.6l2.99-3.54-3.28-3c-1.77,1.78-3.36,7.07-2.49,9.85l2.79-3.31ZM104.33,56.75c.4-2.7-.05-3.67-1.39-4,.02,1.68.55,3.1,1.39,4ZM128.72,54.15c0-.27-.22-.5-.5-.5s-.5.22-.5.5.22.5.5.5.5-.22.5-.5ZM44.25,55.11c-.15-.37-1.43.25-1.9.5-.39.21.49,1.5.86,1.74s2.06.28,1.9-.13l-.86-2.11ZM98.08,64.68c.42-.17.31-1.66-.13-1.62l-1.81.19c-.58.06-1.46-2.25-1.28-2.27l4.02.7-.25-7.12-1.61,2.39-.38,3.81-3.68-3.34-.13,7.19c0,.53.08,2.23.48,2.06l1.81-.77,2.95-1.22ZM109.79,56.14c0-.27-.22-.5-.5-.5s-.5.22-.5.5.22.5.5.5.5-.22.5-.5ZM39.37,57.63c0-.45-.36-.81-.81-.81s-.81.36-.81.81.36.81.81.81.81-.36.81-.81ZM46.41,79.84l-3.61-1.58,2.26-1.02-.32-5.14-2.89,2.41c.62,1.98.65,2.09.61,1.94l-.51,6.18,11.12-3.53-.39-6.67c-1.41,2.35-1.64,2.57-1.61.16l2.37-3.61-4.67-.73,2.47-2.01c2.74-.08,2.22-1.02.1-1.53-1.29-.42-2.59-.84-2.05-.66l1.65-2.02c.22-.27-1.72-.4-1.76-.75l-.52-4.93-1.82,2.84c1.2,2.54,1.31,3.06.03.8-1.48-.74-1.55-.78-3.83-1.22l-1.18,1.95c1.62.48,3.71,1.21,4.97,1.88.48.26,1.34,1.9,1.16,2.41-.12.34-.88,1.13-.8,1.46l.77,3.24-2.95-2.6c.75-1.05,1.42-1.76,1.05-1.98l-1.63-.97c-.38-.22-.78-1.29-.94-1.69s-1.48.7-1.47,1.17l.04,6.59c1.39.33,2.97.54,3.38,1.21l1.23,2.03c1.51.1,3.83.12,3.9.94l.27,3.12-1.91-2.69-2.53,2.18.02,2.79ZM91.76,61.83l.03-5.42-3.01,2.68,2.98,2.74ZM105.5,57.93c.22-.3-.06.08-.72.97-.61,1.94-1.81,2.9-1.52-.02l-2.37-2.51.06,7.42,4.89-1.54-.34-4.32ZM109.21,60.92c.58-.24,1.4-1.12,1.78-1.61.25-.33-1.27-.94-1.59-.68l-1.27,1.02-.92-3.25-.48,3.28c-.06.43.14,2.22.55,2.05l1.93-.81ZM66.38,57.74c.08-.43-.18.97-.44,2.32,2.16,1,2.98.59.44-2.32ZM65.41,59.9l-2.77-1.95-1.18,4.1-1.57,2.7,5.51-4.85ZM78.52,65.55c-.43,1.69-.19.51.32-1.71l2.73,2.48c-.07.13.6-1.09,1.15-2.1.37-.68-.59-2.74-1.35-2.58l-3.13.66-1.09-3.79.41,5.23-.97,3c-.37,1.13-.84,3.93.23,4.4.89.39,2.39.06,4.66-.3l.1-2.31-3.06-2.97ZM51.01,60.12c0-.27-.22-.5-.5-.5s-.5.22-.5.5.22.5.5.5.5-.22.5-.5ZM27.19,67.52c1.52,1.78,2.42,2.79,3.29,3.3l4.21,2.46c-.45.32.96-.69.87-.67s1.18,1.02,1.03.9l1.41-2.55c.25-.45.82.06,2.09.62l-.2-11.04-1.42,1.95c-1.33-2.26-2.47-2.71-2.01-.39l-1.23,3.21c-.07-.04,1.07.66,2.08,1.28l1.95,2.24-5.72-1.74-2.78,2.35-.74-1.8c3.14-.49,2.87-1.46-.15-2.51l-2.7,2.38ZM59.6,65.17l-2.27-3.67-1.46,2.63c-.36.66,1.08,1.82,2.4,3.15,1.14,1.09,1.67-.67,1.33-2.11ZM63.89,71.43l-.07-7.97-.63,1.61-1.87,2.03,2.57,4.32ZM63.51,72.72c-1.54-.29-2.62-.5-2.35-.45l.87-2.18c.16-.41-1.46-.96-1.61-.55l-.67,1.75-3.96-1.89,2.22,2.12,4.13,3.73c.38.82.89,1.66,1.16,1.41l1.57-1.51-1.35-2.42ZM39.99,76.42l-5.43,1.61c.19.87,0,.01-.47-2.18l-3.94-.45,1.16-2.72-3.26-.11.12,5.52,3.86,1.54,5.69,2.26,1.84.73c.41.16.5-1.59.49-2.03l-.07-4.17ZM38.64,74.56c1.93-1.94,1.34-2.52-.6-.6-1.03,1.53-.93,1.62.6.6ZM60.03,76l-4.78-3.59.69,2.47c.1.34-.99,1.63-.87,1.97.47,1.31,4.38.55,4.96-.85ZM27.1,78.03c0-.27-.22-.5-.5-.5s-.5.22-.5.5.22.5.5.5.5-.22.5-.5ZM54.99,79.02c0-.27-.22-.5-.5-.5s-.5.22-.5.5.22.5.5.5.5-.22.5-.5Z"/>
      <path class="cls-1" d="M87.87,83.5c.4,2.37.59,2.36,1,0l4.45-2.71c1.02-.62,2.49-2.07,3.09-2.8l3.47.09,2.39-2.07,2.16-1.87c.31-.27,1.5-.78,1.81-.58l.91.6,2.56-1.85,4.4-2.36c.58-.31,2.03-.61,3.23-.94l1.8-2.04-5.59-.9c1.31-1.11,4.19-1.74,4.94-1.24l1.62,2.73c1.54-1.02,3.12-2.24,4.09-2.63l8.53-3.42c6.69-2.68.4-1.73,7.36-3.47.52-.43,1.65-1.36,2.17-1.66l3.73-2.16,1.53,1.38-11.14,5.75-3.16,1.58-6.73,3.42-2.79,1.43-4.45,2.26-6.38,3.31-5.32,2.96-3.27,1.75c-1.24.66-2.96,1.5-4.25,2.32l-3.23,2.05c-.3.19-1.37.94-1.49.97-.11.03-1.45-1.11-.69-.51-1.27,1.26-2.64,2.47-3.9,3.16l-2.77,1.52-4.43,2.6-2.43,1.41-9.22,5.07-5.65,3.17c-.7.39-2.81.84-3.25.19l-1.42-2.14-1.04-1.56c-.2-.3-1.58,1-1.94,1h-7.23c-.54-.01-1.55-1.86-1.29-2.33l.87-1.59,1.67-3.05,2,3.17,2.01-3.12,1.87,3.01,2.11-2.02,1.35,3.16c-.16.49-.96,1.61-.57,1.85.28.18,1.05,1,1.16,1.05.08.04.78-1.1,1.04-1.46l1.95-2.71c.84,1.64,1.27,2.49.88,1.72l1.47-3.12c.24-.51,1.65-.21,2.18-.07-.74,1.73-.81,1.89-.38.88l2.89-3.26c1,2.64,2.07,3.1,2.35.1l1.54.76,1.74-2.6c1.78.23,3.01.39,2.31.3l4.75-4.26c.41.15,1.17.49,1.53.32l1.1-.54Z"/>
      <path class="cls-1" d="M88.87,83.5h-1c.43-.84.59-.82,1,0Z"/>
      <path class="cls-1" d="M140.38,73.53l-4.04-.64-13.67-.65,5.11-1.57c3.93-1.21,9.48-2.27,11.35.53.03.41.22.76,1.24,2.33Z"/>
      <path class="cls-1" d="M123.6,88.1l7.83.57,1.44,1.32c2.28-.04,2.15-.03-.06,0l-5.19-.41c.79,2.03.89,2.29.32.84l-9.86.07c-.58,0-2.42-.7-2.86-.73l-10.6-.63c-1.15.1-.82.04.73-.19,1.32-.98,2.11-2.67.23-2.2l-6.92-.63,2.74-.47,1.93-1.74,1.79-1.23,6.9-.42-3.31-1.41,6.67-.63,3.31-1-1.67-3.03,1.5-1.12c4.62-2.06,14.57-2.36,20.22-.15l5.91,2.31-4.12.68c.85,1.63,1.03,1.98.32.61h-11.82c-.29-.26-1.33-1.15-1.5-1.14l-7.86.57,6.73,1.04,5.34.82c.82.13,2.52.86,4.06,1.49-1.74,0-3.9-.08-5.7-.19l-5.51-.35,5.25,1.45-7.01.47v1.62s7.04.69,7.04.69l-9.27,1.05,9.28.89-6.28,1.19ZM139.77,77.02c-2.34-.36-4.37-.35-6.15.03,2.34.36,4.37.35,6.15-.03ZM120.57,88.97c0-.45-.36-.81-.81-.81s-.81.36-.81.81.36.81.81.81.81-.36.81-.81Z"/>
      <path class="cls-1" d="M125.85,96.06c-3.6,1.39-7.48-.49-9.46-.53l-23.56-.52,26.06-1.11-24.13-.61,1.9-1.93,6.07.17c-.42-.01,8.52-2.56,15.25-.07l2.13,1.77,5.79.68-6.27,1.02,6.22,1.13Z"/>
      <path class="cls-1" d="M11.82,83.36l-2.07-.35-3.2-.77c-.35-.08-1.59-.99-1.44-1.33l1.34-3.04c-.43-.18.04.01,1.42.59l.45-2.92,5.31,2.81,1.42-.94c.37,2.16.56,2.93.34,3.85-.31,1.29-3.01,2.71-3.59,2.09Z"/>
      <path class="cls-1" d="M34.67,93.39l-7.2-.07c-.58,0-1.85-1.98-1.53-2.47l1.4-2.2,1.34-2.13c1.17-1.86,5.19,2.72,6.21,3.99l1.13,1.42c.19.24-1.03,1.45-1.34,1.45ZM31.08,89.97c0-.27-.22-.5-.5-.5s-.5.22-.5.5.22.5.5.5.5-.22.5-.5Z"/>
      <path class="cls-1" d="M17.13,90.47h-1c.43-.84.59-.82,1,0Z"/>
      <path class="cls-1" d="M16.14,90.47c.43.84.59.82,1,0l1.6,1.82.04,2.42-2.11,2.81-2.19-2.2-.79,2.14c-.15.41-.97-.14-2.48-.69l-.86-2.17,1.55-1.5,1.01-2.62.79-2.07c.16-.4,1.09.61,1.43.98l1,1.08Z"/>
      <path class="cls-1" d="M75.18,82.77c.99,1.34,1.7,2.34,1.67,2.22-.11-.43-1.4,4.96-7.48,3.36-.3-.08-1.57-1.12-1.36-1.34l1.4-1.42c.69-.7,1.42-2.38,2.18-4.05l.59,3.05,1.25-1.03s1.06.89,1.23,1.04c.36-1.29.68-2.42.51-1.83Z"/>
      <path class="cls-1" d="M67.96,82.64c.36.35-1.31,3.35-2.65,3.79s-4.67-.44-5.35-1.11c.9-1.37,1.26-1.96,1.56-2.31l2-2.36c-.23-.19.99.86.95.83s1.56-1.14.68-.52l2.81,1.68Z"/>
      <path class="cls-1" d="M2.36,87.52l-1.83-.97c-.4-.21.35-1.33.49-1.59-.47-.74-1.28-1.77-.89-1.97l1.8-.92c.5-.25,2.19-.72,2.38-.2l.99,2.68.86,2.31c.19.5-1.11,1.81-1.61,1.63s-1.62-.67-2.2-.97Z"/>
      <path class="cls-1" d="M89.91,78.7c-.18-.07-1.35-.88-1.57-1.1s-1.08,1.13-1.36,1c-1-.48-2.92-1.4-2.83-1.36l3.5-3.31c-.6-.54.61.64.67.6l1.63-1.15,2.99,2.7-3.04,2.62Z"/>
      <polygon class="cls-1" points="116.61 98.34 112.97 97.8 102.67 96.85 114.38 96.3 116.61 98.34"/>
      <path class="cls-1" d="M9.16,21.81l-4.03.72c-2.32-.3-2.28-.36-.26-.26,1.2-.78,2.51-1.66,3.12-1.87l8.27-2.82c1.02-.35,3.18-.56,3.94-.52l-3.38,1.41-7.66,3.34Z"/>
      <path class="cls-1" d="M110.07,68.96c-.65.24-1.88.66-2.15.25s-1.55-2.28-.51-.75l3.08-2.61,2.45,2.4-2.87.71Z"/>
      <path class="cls-1" d="M18.23,43.91c-.04-1.79.52-3.79,1.52-4.42l4.32-2.69-2.93,4-2.91,3.1Z"/>
      <path class="cls-1" d="M10.68,29.93c-.3.38-1.88,1.34-2.05.93s-.9-1.45-.51-1.65l1.64-.84,3.52-1.82-2.6,3.37Z"/>
      <path class="cls-1" d="M102.91,69.34l-5.32.2,1.92-2.03c.52-.55,2.24.68,3.4,1.84Z"/>
      <path class="cls-1" d="M105.81,17.83l-2.42-1.81c-.57-.43-1.31-2.13-1.61-3.24l3.35,2.7c.36.29.69,1.86.68,2.36Z"/>
      <path class="cls-1" d="M135.29,58.63l-4.66-1.5c1.12-.87,2.25-1.8,2.6-1.32l2.06,2.82Z"/>
      <path class="cls-1" d="M51.01,5.89c.49-.64,2.43-.88,3.06-.56l-3.06.56Z"/>
      <path class="cls-1" d="M85.88,69.57l1.7-1.26,2.46-.43c2.29-.03,2.08.15-.05.75l-4.11.93Z"/>
      <path class="cls-1" d="M73.31,44.05c-.34.93-3.4,5.88-5.94,6.75l-.19-2.87c1.04-1.42,2.77-3.46,4.1-4.89l1.16-1.25c.3-.32,1.71-.03,1.56.39l-.69,1.88Z"/>
      <path class="cls-1" d="M94.44,51.95l-.4-3c1.35-.98,2.05-1.45,3.92-2.47l-3.52,5.47Z"/>
      <path class="cls-1" d="M31.08,60.62l-2.18,1.9,2.18-1.9Z"/>
      <path class="cls-1" d="M63.96,20.82l-3.99,3.96-2.17,1.75c.16.09-.17-.09-1.47-.84l4.07-3.44c.65-.55,2.66-1.05,3.57-1.43Z"/>
      <path class="cls-1" d="M86.88,19.82l3.34-1.58-3.34,1.58Z"/>
    </g>
  </g>
</svg>