<?xml version="1.0" encoding="UTF-8"?>
<svg id="Livello_2" data-name="Livello 2" xmlns="http://www.w3.org/2000/svg" viewBox="0 0 120.62 181.01">
  <defs>
    <style>
      .cls-1 {
        fill: #fff;
      }
    </style>
  </defs>
  <g id="Livello_1-2" data-name="Livello 1">
    <g>
      <path class="cls-1" d="M90.04,181.01h-27.83s-6.12-1.01-6.12-1.01l-28.51.07c-5.66-1.67-10.53-3.27-15.81-5.3l-8.48-10.7-1.92-8.9-.87-6.09-.51-7.93,1.16-5.02.18-31.5.93-5.17-.03-72.41,1.36-4.85,2.97-5.93,2.12-2.98c1.69-1.74,3.64-3.6,5.5-5.27l5.98-4.22L29.05.98c2.29-.2,4.1-.46,6.26-.98h56.07s8.68,2.79,8.68,2.79l5.5,2.49,5.25,5.64,2.53,3.59c2.7,3.8,4.14,8.38,3.24,13.34l1.2,6.13v41.64s.97,5.11.97,5.11v20.81s.98,5.07.98,5.07l.18,42.47c.58,2.25.75,4.34.71,6.53-1.23,4.53-2.63,8.34-4.97,12.23l-8.11,8.15-12.54,4.09-4.95.91ZM74.46,21.89l15.26-.13,5.12-1.02c5.32-1.41,9.36-4.56,13.54-8.55.03-.71.09-2.21.09-2.09l-4.98-4.04-12.77-4.13-56.42.1-5.24.96c-6.26,1.46-11.92,4.85-16.75,8.95l-1.28,2.46.93,1.86,12.21,5.76,20.84-.26,8.96-3.39c4.55-.37,8.61-.38,13.08.07l7.41,3.47ZM4.2,97.59l-1,3.81v35.73s-1.21,5-1.21,5l.49,8.94.7,5.25c1.54,5.89,4.71,11.47,8.52,16.16l6.83,3.17,7.75,2.34,24.65.18c2.73,1.08,5.43,1.05,8.29,0l2.95.89,29.56-.04,4.99-1.22,6.94-1.94c5.25-3.01,9.33-7.03,13.05-11.94l1.45-5.74c.72-4.33.86-8.64-.27-12.89l-.16-27.78c-1.05-2.76-1.22-5.63-.15-8.51.07-1.76-.16-3.76-.64-5.69l-.24-27.56-.94-5.09.09-35.73-1.19-3.04.41-9.17-3.87-9.62-4.58,3.28,1.03,4.59,2.21,7.06-.05,62.48.91,5.15.23,25.53,1.02,5.08-.27,23.78-1.01,6.09-1.52,7.4-10.24,5.62-9.95,1.91c-2.55.11-4.78.37-7.22.99h-45.45s-5.07-.93-5.07-.93l-8.87-.87-8.29-4.98c-1.72-2.68-3.09-4.96-4.36-7.54l-2.43-9.76v-19.47s1.01-5.06,1.01-5.06v-14.86s.95-5.19.95-5.19l-.04-76.48,3.41-8.01-2.88-3.08-3.23,3.28-2.26,7.94-.05,70.52ZM81.03,100.62l14.04-5.7c-3.31-.58-6.6-.33-10.08.48l-11.87.16-3.04.96-7.87.1-6.32,1.35-2.93-1.89.93-3.04,6.71-3.01,5.02-1.92,5.45-2.35-17.06-.31-3.84,1.11-9.74.11-1.82-4.39,8.17-4,6.98-2.9,5.62-2.53-3.67-2.87-7.25-3.73-4.71-2.79-5.25,5.15c-2.1-.23-4.13-.55-5.36-.89l1.79-4.37,1.46-4.38-4.64-8.88c1.59-.9,4.15-1.43,5.85-1.26l4.71,3.71,7.14,7.06,4.74-.05,5.01.94,9.65.47,6.13.74,6.14.69,8.67.55,5.16.71,5.13.86,7.81.15-.02-38.66-1.86-5.43-2.61-2-2.29,1.85-7.1,2.53-4.25.9-64.41.05-8.2-3.06-3.17-.85-2.56,5.92-1.1,6.13v15.5s1.32,7.16,1.32,7.16l-1.28,8.95-.23,13.02,1.1,3.08v28.67s4.66-2.47,4.66-2.47l5.42,1.04,3.26,2.78,3.71-1.24,5.61-.17,3.55-3.91,5.59.25c2.44.69,4.99.79,7.51.18l6.18.91c3.13,2.85,5.34,5.27,8.18,9.29l6.74.19c2.66-1.74,5.22-2.06,8.25-1.81,2.83,1.5,5.82,1.07,8.28-.75l5.85-.55,5.79,1.25c2.87,2.07,4.93,4.33,6.43,7.68l1.96,1.44,1.74-1.48-.36-6.45-1.06-8.26-3.78,1-11.66.26-5.01,1.02-5.07-.08c-2.95,1.41-6.9,1.08-8.93-.62l-1.03-3.52,7.99-3.76ZM69.91,21.84l-3.96-2.03-9.77.11-6.26,1.79,19.99.13ZM46.18,58.47l-3.83-3.93-5.59-4.24-2.04,1.91,3.5,6.54,7.96-.29ZM37.23,66.59l3.98-2.51-.92-3.09-2.94-.37-2.01,5.73c-.28-.04.99.12,1.89.24ZM59.31,64.91l-4.63-.68-8.24-2.42-1.21.78,10.56,5.53,2.73.4.79-3.61ZM98.39,65.96l-6.62-1.05-5.86-.53-7.98-.76c-2.13-.15-3.98-.41-6.13-.91l-11.9.23,8.19,1.54,33.71,8.32,6.04.97v-6.93s-9.45-.87-9.45-.87ZM68.04,66.13l-7.06-.37,1.21,2.34,4.39.69,1.46-2.66ZM80.15,69.57l-9.73-2.34-2.28,2.8,5.64,1.77,8.03,2.62,1.41-3.37-3.07-1.49ZM101.33,85.85l-6.71-3-6.97-2.95-21.63-8.71c-1.23-.51-3.05-.17-1.45,1.08l22.17,11.39,12.22,6.55,2.38-4.35ZM94.82,73.37l-9.77-2.44-1.17,3.13,1.91,1.56,9.58,3.44,2.98-2.97c-.73-1.14-2.08-2.15-3.54-2.72ZM64.29,75.43l-2.95-2.3-5.48,3.4,8.43-1.1ZM107.72,82.45l.33-5.43-2.94-1.45-4.81-.89-2.06,4.49,7.07,3.02,2.4.26ZM76.97,87.67l8.33-2.53-3.87-1.91-5.47,2.32-5.12,2.76,6.14-.63ZM108.38,94.78l.39-4.98-1.24-5.14c-.57-.3-1.65-.87-1.56-.83l-1.22,1.59-2.49,6.3,6.11,3.05ZM97.57,98.1l3.92-1.06,4.71-1.06-4.5-2.53-4.27,2.63-4.63,2.17,4.77-.14ZM57.31,116.75l4.99-2.78-4.54-5.18-4.71-2.03-5.97.5-7.24-1.27-4.31,2.04,4.6,5.3,2.53,4.51,4.45-4.47,4.44-.91,5.76,4.28ZM80.1,164.53l7.43-2.09,2.43-5c3.76-1.24,5.97-3.36,7.71-6.39l4.43-4.65,5.08-1.01,2.7-1.73.02-17.84-3.79-2.02-6.17,1.58c-1.95,1.43-3.58,3.02-4.65,5.33-1.22,1.57-2.95,3.52-4.02,4.54-3.69.26-5.3.9-7.67,2.28-.92,2.33-1.65,5.22-1.76,7l3.41,2.97-5.06.21c-1.56,1.09-2.22,1.55-1.9,1.33l1.91-7.71.54-2.93-6.23-.4c-1.61,1.88-3.03,3.76-4.71,6.43-.21.66-1.63,1.48-2.82,1.69-2.01.72-4.44,2.06-5.55,3.01l-1.85,6.16c-1.17-3.01-.39-6.31,1.42-8.8l6.46-2.7,4.82-6.95-4.63-3.3-4.33-.26-3.01,3.28-.74,1.77-1.59-.52.51-1.99,2.67-3.24,5.43-1.68c1.56-2.83,4.04-4.27,7.3-5.03,3.11.45,5.87,1.17,7.42,3.8l-9.36-1.83-3.76,3.75,5.2,4.5,8.56.31,5.05-3.08c2.81.4,5.32-.96,6.16-3.67l5.92-6.03,5.17-1.59-1.81-4.2c-2.98-2.36-5.71-3.54-9.41-3.82l-5.53.99c-1.9,1.43-4.44,1.51-6.55.6l-6.31-.45-1.96,2.73,1.94,2.64,7.33-.25,3.35,5.19-3.88-3.15-7.34.62-2.5-3.72-6.29-2.45-4.35.18-4.7,2.43-1.89-3.41c-2.92-1.55-6.14-1.33-8.81,1.2l4.35,8.76-1.27,1.36-3.94-7.29-5.11-1.82c-1.04-3.41-2.75-5.89-5.11-7.96l-6.99.33-4.04,4.06-.44-4.03c-3.98-3.56-10.08-2.87-12.82,1.71l.08,9.89,6.21-3.16c2.15,2.43,3.39,2.76,4.98,1.72,2.5-1.66,5.06-1.5,7.34-.24l3.24,3.09c4.89-1.21,8.36,1.49,10.54,5.39l.62,1.93-1.89.33c-.63-3.82-3.43-6.01-6.91-5.97l-2.66,1.12-1.67-2-3.54-3.32-5.24,1.63c-.8.81-2.65.47-3.94-.72-1.46-.93-4.06-.38-5.38.78l-2.73,5.62.05,19.72,1.39,4.08c1.45-3.23,4.6-5.84,8.84-6.14l3.46-7.02,1.49-3.09-2.1-1.73-3.58-1.33-3.48-3.77-2.54,1.36-.55-1.62,2.14-1.43,3.42,1.26,5.6,3.79c1.5.79,2.5,2.43,3.34,4.72l4.71-.03c3.57.72,6.14,3.77,7.12,6.94l4.84-2.02c3.86.11,7.49,1.88,10.05,4.83-.69,1.54-1.22,2.75-.77,1.72l-7.29-5.03-7.96,2.8c-1.28-5.04-4.71-8.08-9.64-7.88-2.33,1.13-4.31,2.86-5.25,4.84l-1.68,4.82-6.07.6-3.63,7.83c2,5.31,4.97,9.28,9.58,10.59,2.63-3.73,5.34-6.56,8.48-9l5.72-.17c2.02-2.58,4.86-4.38,8.15-3.58l7.58-1.4,3.67,2.71-7.15-.25-2.57,5.29,4.07,1.95c2.29,1.56,4.27,2.69,7.22,3.83l3.18,3.51c-4.37-2.1-7.15-3.45-10.44-2.88l-3.72,2.81,3.63-5.62-4.96-1.67-3.6,3.02-1.7-.24,4.44-4.74,1.66-4.36c-2.26-.57-5.32,0-6.97,1.7l-2.99,4.66-2.39-2.98c-4.3.84-6.89,2.94-9.23,7.8,1.35.71,2.83,1.28,4.14,1.55l6.39.72,10.64.46,5.05.98,11.93-.38c3.48-1.09,7.35-.86,10.91.1,1.62-3.27,4.34-6.45,8.27-6.49ZM73.85,169.78l7.87.28,5.1-1.01,6.24-.45,6.49-1.71,4.95-2.11,3.36-3.74,1.32-5.8.79-8.28c-3.73.44-5.66,1.09-8.68,2.5l-3.67,4.22,2.31,3.43c-4.29-.34-7.74.65-10.34,3.79l.92,2.98,2.15,1.9-2.95-.14-4.46-.65-.57,2.86-4.49-2.23-6.34,4.17Z"/>
      <polygon class="cls-1" points="71.4 154.98 66.36 157.86 64.36 157.02 62.32 159.15 61.89 156.53 64.88 155.16 71 153.4 75.76 154.79 77.09 159.23 71.4 154.98"/>
    </g>
  </g>
</svg>